<svg xmlns="http://www.w3.org/2000/svg" viewBox="0 0 4797 969"><g transform="translate(16,729)"><path d="M377 15L377 15Q304 15 242.50-11.50Q181-38 137-85.50Q93-133 68.50-195.50Q44-258 44-329L44-329Q44-426 86.50-503Q129-580 205-624.50Q281-669 381-669L381-669Q478-669 551.50-624.50Q625-580 666-503Q707-426 707-329L707-329Q707-228 661.50-147Q616-66 537-23L537-23Q555-5 575 8Q595 21 620 21L620 21Q640 21 659 18.50Q678 16 697 13L697 13L703 56Q682 59 661 62Q640 65 620 65L620 65Q573 65 543 44Q513 23 489-3L489-3Q436 15 377 15ZM253-54L253-54Q278-84 309-102.50Q340-121 381-121L381-121Q423-121 452-101.50Q481-82 505-57L505-57Q524-66 541-78L541-78L541-576Q508-600 466.50-613Q425-626 377-626L377-626Q328-626 286-614Q244-602 210-580L210-580L210-79Q230-65 253-54ZM167-118L167-118L167-543Q90-462 90-329L90-329Q90-269 110-214Q130-159 167-118ZM584-538L584-538L584-117Q621-158 641-213Q661-268 661-329L661-329Q661-389 641-443Q621-497 584-538ZM377-28L377-28Q419-28 456-38L456-38Q440-55 421.50-66Q403-77 378-77L378-77Q352-77 332.50-66Q313-55 298-38L298-38Q336-28 377-28ZM961-578L961-578L961-81Q995-57 1037.50-43.50Q1080-30 1130-30L1130-30Q1212-30 1270.50-65.50Q1329-101 1376-156L1376-156L1407-126Q1292 15 1124 15L1124 15Q1023 15 949-31Q875-77 835-155.50Q795-234 795-330L795-330Q795-427 835.50-503.50Q876-580 951-624.50Q1026-669 1129-669L1129-669Q1224-669 1291-631.50Q1358-594 1409-531L1409-531L1376-503Q1333-553 1274-589.50Q1215-626 1127-626L1127-626Q1078-626 1036.50-613.50Q995-601 961-578ZM841-332L841-332Q841-204 918-119L918-119L918-542Q841-460 841-332Z" fill="#0b1d42"></path><g transform="translate(1668,0) scale(0.7931)"><path d="M-33 227L-33 227Q-84 227-110.50 204.50Q-137 182-137 148L-137 148Q-137 126-125 110.50Q-113 95-91 95L-91 95Q-66 95-56.50 109Q-47 123-44 141.50Q-41 160-36.50 174Q-32 188-18 188L-18 188Q-2 188 10.50 171Q23 154 33 126Q43 98 50 66.50Q57 35 62.50 7Q68-21 70-40L70-40L132-421L47-421L53-467L140-467Q147-506 155-540L155-540Q166-585 185-618L185-618Q199-642 219-663Q239-684 270.50-697.50Q302-711 350-711L350-711Q382-711 406-701.50Q430-692 443.50-674.50Q457-657 457-632L457-632Q457-608 443-596Q429-584 410-584L410-584Q387-584 377.50-597Q368-610 365-628L365-628Q362-647 357-663Q352-679 335-679L335-679Q302-679 281.50-640.50Q261-602 250-539L250-539L239-467L337-467L330-421L231-421L178-83Q174-56 165-16Q156 24 140.50 66Q125 108 101.50 144.50Q78 181 45 204Q12 227-33 227ZM426 10L426 10Q392 10 374.50-5Q357-20 357-46L357-46Q357-59 360.50-78.50Q364-98 374-142L374-142L424-375L426-385Q427-394 427-406L427-406Q427-416 421-425.50Q415-435 395-435L395-435Q382-435 372-434L372-434L361-433L361-465L512-476L543-476L468-122L466-107Q463-91 463-80L463-80Q463-61 481-61L481-61Q507-61 526-79.50Q545-98 557-111L557-111L581-94Q564-70 543.50-46Q523-22 495.50-6Q468 10 426 10ZM504-552L504-552Q478-552 461-568Q444-584 444-613Q444-642 460.50-658.50Q477-675 507-675L507-675Q536-675 552-658.50Q568-642 568-613L568-613Q568-585 550.50-568.50Q533-552 504-552ZM1008 11L1008 11Q967 11 951-7.50Q935-26 935-51L935-51Q935-63 937.50-73.50Q940-84 941-89L941-89L1000-313L1004-330Q1007-346 1007-362L1007-362Q1007-379 1001.50-390Q996-401 980-401L980-401Q960-401 935.50-380.50Q911-360 886.50-328Q862-296 840.50-260Q819-224 803-192L803-192Q792-171 785-155L785-155L749 0L648 0L728-375L730-386Q732-397 732-408L732-408Q732-421 724-428Q716-435 699-435L699-435Q689-435 678-434L678-434L667-433L667-465L814-476L844-476L794-268L804-268Q816-290 834-320L834-320Q856-357 886-393.50Q916-430 954.50-455Q993-480 1041-480L1041-480Q1083-480 1097.50-457.50Q1112-435 1112-406L1112-406Q1112-383 1108.50-364.50Q1105-346 1102-334L1102-334L1045-105L1044-98Q1042-90 1042-81L1042-81Q1042-62 1062-62L1062-62Q1087-62 1105-80Q1123-98 1134-112L1134-112L1158-94Q1150-83 1138-65.50Q1126-48 1108-30.50Q1090-13 1065.50-1Q1041 11 1008 11ZM1342 13L1342 13Q1307 13 1277.50-4.50Q1248-22 1230.50-60Q1213-98 1213-159L1213-159Q1213-227 1234-285.50Q1255-344 1291.50-387.50Q1328-431 1373.50-455.50Q1419-480 1468-480L1468-480Q1510-480 1532.50-464Q1555-448 1571-426L1571-426L1575-426L1612-472L1673-472L1600-123L1598-110Q1595-97 1595-86L1595-86Q1595-76 1599-69.50Q1603-63 1615-63L1615-63Q1631-63 1644-71.50Q1657-80 1668-92L1668-92L1685-112L1708-94Q1692-68 1671.50-44Q1651-20 1623-4.50Q1595 11 1557 11L1557 11Q1528 11 1512-1Q1496-13 1496-41L1496-41Q1496-50 1497.50-60Q1499-70 1500-81L1500-81L1494-81Q1459-35 1422-11Q1385 13 1342 13ZM1385-58L1385-58Q1414-58 1439-74Q1464-90 1482.50-118Q1501-146 1511-183L1511-183Q1516-203 1523-233.50Q1530-264 1535-295Q1540-326 1540-347L1540-347Q1540-383 1521.50-411Q1503-439 1465-439L1465-439Q1433-439 1405.50-416.50Q1378-394 1358.50-355Q1339-316 1329-268.50Q1319-221 1319-171L1319-171Q1319-105 1337-81.50Q1355-58 1385-58ZM2139 11L2139 11Q2098 11 2082-7.50Q2066-26 2066-51L2066-51Q2066-63 2068.50-73.50Q2071-84 2072-89L2072-89L2131-313L2135-330Q2138-346 2138-362L2138-362Q2138-379 2132.50-390Q2127-401 2111-401L2111-401Q2091-401 2066.50-380.50Q2042-360 2017.50-328Q1993-296 1971.50-260Q1950-224 1934-192L1934-192Q1923-171 1916-155L1916-155L1880 0L1779 0L1859-375L1861-386Q1863-397 1863-408L1863-408Q1863-421 1855-428Q1847-435 1830-435L1830-435Q1820-435 1809-434L1809-434L1798-433L1798-465L1945-476L1975-476L1925-268L1935-268Q1947-290 1965-320L1965-320Q1987-357 2017-393.50Q2047-430 2085.50-455Q2124-480 2172-480L2172-480Q2214-480 2228.50-457.50Q2243-435 2243-406L2243-406Q2243-383 2239.50-364.50Q2236-346 2233-334L2233-334L2176-105L2175-98Q2173-90 2173-81L2173-81Q2173-62 2193-62L2193-62Q2218-62 2236-80Q2254-98 2265-112L2265-112L2289-94Q2281-83 2269-65.50Q2257-48 2239-30.50Q2221-13 2196.50-1Q2172 11 2139 11ZM2503 13L2503 13Q2449 13 2414-10Q2379-33 2362-73.50Q2345-114 2345-168L2345-168Q2345-232 2366-288.50Q2387-345 2424-388Q2461-431 2509.50-455.50Q2558-480 2612-480L2612-480Q2663-480 2698-456.50Q2733-433 2733-385L2733-385Q2733-354 2717.50-332Q2702-310 2671-310L2671-310Q2651-310 2639.50-320Q2628-330 2628-349L2628-349Q2628-369 2637-386.50Q2646-404 2646-416L2646-416Q2646-427 2634.50-435Q2623-443 2600-443L2600-443Q2562-443 2533.50-420.50Q2505-398 2486-360Q2467-322 2457-277Q2447-232 2447-188L2447-188Q2447-141 2458-113Q2469-85 2491.50-72.50Q2514-60 2548-60L2548-60Q2596-60 2627.50-79Q2659-98 2681-126L2681-126L2702-108Q2681-76 2653-48.50Q2625-21 2587.50-4Q2550 13 2503 13ZM2853 10L2853 10Q2819 10 2801.50-5Q2784-20 2784-46L2784-46Q2784-59 2787.50-78.50Q2791-98 2801-142L2801-142L2851-375L2853-385Q2854-394 2854-406L2854-406Q2854-416 2848-425.50Q2842-435 2822-435L2822-435Q2809-435 2799-434L2799-434L2788-433L2788-465L2939-476L2970-476L2895-122L2893-107Q2890-91 2890-80L2890-80Q2890-61 2908-61L2908-61Q2934-61 2953-79.50Q2972-98 2984-111L2984-111L3008-94Q2991-70 2970.50-46Q2950-22 2922.50-6Q2895 10 2853 10ZM2931-552L2931-552Q2905-552 2888-568Q2871-584 2871-613Q2871-642 2887.50-658.50Q2904-675 2934-675L2934-675Q2963-675 2979-658.50Q2995-642 2995-613L2995-613Q2995-585 2977.50-568.50Q2960-552 2931-552ZM3188 13L3188 13Q3153 13 3123.50-4.50Q3094-22 3076.50-60Q3059-98 3059-159L3059-159Q3059-227 3080-285.50Q3101-344 3137.50-387.50Q3174-431 3219.50-455.50Q3265-480 3314-480L3314-480Q3356-480 3378.50-464Q3401-448 3417-426L3417-426L3421-426L3458-472L3519-472L3446-123L3444-110Q3441-97 3441-86L3441-86Q3441-76 3445-69.50Q3449-63 3461-63L3461-63Q3477-63 3490-71.50Q3503-80 3514-92L3514-92L3531-112L3554-94Q3538-68 3517.50-44Q3497-20 3469-4.50Q3441 11 3403 11L3403 11Q3374 11 3358-1Q3342-13 3342-41L3342-41Q3342-50 3343.50-60Q3345-70 3346-81L3346-81L3340-81Q3305-35 3268-11Q3231 13 3188 13ZM3231-58L3231-58Q3260-58 3285-74Q3310-90 3328.50-118Q3347-146 3357-183L3357-183Q3362-203 3369-233.50Q3376-264 3381-295Q3386-326 3386-347L3386-347Q3386-383 3367.50-411Q3349-439 3311-439L3311-439Q3279-439 3251.50-416.50Q3224-394 3204.50-355Q3185-316 3175-268.50Q3165-221 3165-171L3165-171Q3165-105 3183-81.50Q3201-58 3231-58ZM3693 10L3693 10Q3656 10 3639.50-5.50Q3623-21 3623-47L3623-47Q3623-66 3627.50-93.50Q3632-121 3636-144L3636-144L3731-604L3733-614Q3734-624 3734-636L3734-636Q3734-646 3728.50-656Q3723-666 3703-666L3703-666Q3690-666 3680-665L3680-665L3670-664L3670-694L3821-705L3849-705L3734-123Q3732-115 3730-101Q3728-87 3728-80L3728-80Q3728-70 3733.50-65.50Q3739-61 3748-61L3748-61Q3774-61 3792-79.50Q3810-98 3822-111L3822-111L3846-94Q3829-70 3809-46Q3789-22 3761-6Q3733 10 3693 10Z" fill="#0b1d42"></path></g></g></svg>