<svg xmlns="http://www.w3.org/2000/svg" viewBox="0 0 1485 854"><g transform="translate(16,729)"><path d="M377 15L377 15Q304 15 242.50-11.50Q181-38 137-85.50Q93-133 68.50-195.50Q44-258 44-329L44-329Q44-426 86.50-503Q129-580 205-624.50Q281-669 381-669L381-669Q478-669 551.50-624.50Q625-580 666-503Q707-426 707-329L707-329Q707-228 661.50-147Q616-66 537-23L537-23Q555-5 575 8Q595 21 620 21L620 21Q640 21 659 18.50Q678 16 697 13L697 13L703 56Q682 59 661 62Q640 65 620 65L620 65Q573 65 543 44Q513 23 489-3L489-3Q436 15 377 15ZM253-54L253-54Q278-84 309-102.50Q340-121 381-121L381-121Q423-121 452-101.50Q481-82 505-57L505-57Q524-66 541-78L541-78L541-576Q508-600 466.50-613Q425-626 377-626L377-626Q328-626 286-614Q244-602 210-580L210-580L210-79Q230-65 253-54ZM167-118L167-118L167-543Q90-462 90-329L90-329Q90-269 110-214Q130-159 167-118ZM584-538L584-538L584-117Q621-158 641-213Q661-268 661-329L661-329Q661-389 641-443Q621-497 584-538ZM377-28L377-28Q419-28 456-38L456-38Q440-55 421.50-66Q403-77 378-77L378-77Q352-77 332.50-66Q313-55 298-38L298-38Q336-28 377-28ZM961-578L961-578L961-81Q995-57 1037.50-43.50Q1080-30 1130-30L1130-30Q1212-30 1270.50-65.50Q1329-101 1376-156L1376-156L1407-126Q1292 15 1124 15L1124 15Q1023 15 949-31Q875-77 835-155.50Q795-234 795-330L795-330Q795-427 835.50-503.50Q876-580 951-624.50Q1026-669 1129-669L1129-669Q1224-669 1291-631.50Q1358-594 1409-531L1409-531L1376-503Q1333-553 1274-589.50Q1215-626 1127-626L1127-626Q1078-626 1036.50-613.50Q995-601 961-578ZM841-332L841-332Q841-204 918-119L918-119L918-542Q841-460 841-332Z" fill="#f5f1e6"></path></g></svg>